<?xml version="1.0" encoding="UTF-8"?>
<svg id="Ebene_1" xmlns="http://www.w3.org/2000/svg" version="1.1" viewBox="0 0 71 56">
  <!-- Generator: Adobe Illustrator 30.1.0, SVG Export Plug-In . SVG Version: 2.1.1 Build 136)  -->
  <defs>
    <style>
      .st0 {
        fill-rule: evenodd;
      }

      .st1 {
        fill: #cd0039;
      }
    </style>
  </defs>
  <path d="M67.2,28.4c1.2,0,2.2,1,2.2,2.2s-1,2.2-2.2,2.2-2.2-1-2.2-2.2,1-2.2,2.2-2.2ZM67.2,28.1c-1.3,0-2.5,1.1-2.5,2.5s1.1,2.5,2.5,2.5,2.5-1.1,2.5-2.5-1.1-2.5-2.5-2.5ZM66.6,29.6h.6c.2,0,.5,0,.5.4s-.3.4-.5.4h-.6v-.8ZM66.2,31.9h.4v-1.2h.5c.4,0,.5.1.6.5,0,.4,0,.5.1.7h.4c0-.3-.1-.5-.2-.8,0-.3-.1-.5-.4-.5.5-.1.5-.6.5-.6,0-.7-.7-.7-.9-.7h-.9v2.7h0Z"/>
  <path d="M2.8,43c1.2-3.5,2.7-6.9,4.5-10.2,7.8-2.3,9.2-.5,9.2-2.5s.2-.6-.7-.8c-1.1-.3-3.7,0-7.1.7,1.5-2.8,3.2-5.6,5.3-8.1,4.6-1,6.2-1.2,6.9-1.3.8,0,.7.2,2,.2s1-.6,1-1.2c0-1-1.6-1.1-2.4-1.1-2.4,0-6.2.7-8.5,1.3-.9.2-2.8.5-2.8,1.8s.2.7.7.7c2.3-3.8-5,8.3-7.3,12.5-.9,1.5-3.7,7.7-3.7,9.3s.5,1.5,1.2,1.5.8-.6,1-1.1l.6-1.9Z"/>
  <path class="st0" d="M13.5,40.9c0,.5.4.9.9.9.9,0,1-1,1.2-1.6,1.9-6.3,5-9.4,5-10.3s-.4-.7-.7-.7c-1.4,0-6.4,9.4-6.4,11.8ZM23.6,21.7c-1,0-2.4,1.9-2.4,2.8s.4.9.9.9c1.1,0,2.5-1.8,2.5-2.9s-.4-.9-.9-.9Z"/>
  <path d="M23.2,27.6c-.6,0-1.4.2-1.4,1s.7.9,1.2.9.5,0,.8-.2c-2.7,5-3.3,7.3-3.3,9.5-.2,1.9,1.2,2.7,2.1,2.7,1.9,0,3.6-2.1,4.6-3.5.4-.5,1.6-2.3,1.6-2.9s-.3-.5-.6-.5-.6.4-.8.7c-.7,1.2-2.5,4.2-4,4.2s-.9-.5-.9-1.1c0-2.5,2.6-7.6,4-9.8,1.5-.4,3-1.1,4.5-1.2.6,0,1.4,0,1.4-.9s-.5-.9-1.1-.9c-1,0-2.2.4-3.2.6.4-.9,2.2-2.8,2.2-3.7s-.4-.9-.8-.9c-1,0-3.7,4.6-4.4,5.5l-2.1.5Z"/>
  <path class="st0" d="M37.6,40.2c0,.5.4.9.9.9.9,0,1-1,1.2-1.6,1.9-6.3,5-9.4,5-10.3s-.4-.7-.7-.7c-1.4,0-6.4,9.4-6.4,11.8ZM47.7,21c-1,0-2.4,1.9-2.4,2.8s.4.9.9.9c1.1,0,2.5-1.8,2.5-2.8s-.4-.9-.9-.9Z"/>
  <path d="M48.2,29.5c-1.2,0-4.4,6.8-5.1,8.2-.3.6-.7,1.6-.7,2.2s.3,1,.9,1,1.3-1.2,1.6-1.8c1.2-2.1,2.6-4.2,4.6-5.5h0c-1.1,1.7-2,3.9-2,5.9s.4,3.6,2,3.6.8-.4.8-.8-.9-1.1-.9-2.8c.2-4.8,4.5-7.9,4.5-9.3,0-.6-.3-.9-.8-.9-1.4,0-5,3.5-5.9,4.6h0c.2-.9,1.9-2.7,1.9-3.5,0-.5-.4-.9-.9-.9Z"/>
  <path class="st0" d="M55.7,35.3c.2-.7.9-1.9,1.8-2.9.9-1.1,1.9-1.9,2.5-1.9s.4.2.4.4c0,.7-.9,1.7-1.3,2.2-1,1.1-2,1.8-3.4,2.2ZM60.9,28.4c-2.2,0-7.7,4.5-7.7,9.4s1.2,2.9,3,3c3.2.1,8.2-4.6,8.3-6,0-.3-.3-.5-.5-.5-.8,0-3.4,4.5-6.8,4.5s-2-.7-1.8-1.9c3.9-1,7.1-4.8,7.1-7.1s-.7-1.4-1.5-1.4Z"/>
  <path class="st1" d="M38.1,30.8c4.1-7,19.1-25.8,19.9-29C58.2.9,57.1,0,56.1,0c-1.7,0-3.7,3.1-4.7,4.3l-8.6,11.8c-10.6,15.1-15.1,23.8-17.8,31.7-1.1,3.2.9,5.3,3,4.9,2.7-.5,6.2-2.2,12.2-3.4,6.1-1.2,11.1-1.5,15.6-1,.5,0,4.5,1.1,4.5-2s-14.7-3.6-30.3,1.1c1.7-5.9,4.9-11.3,8-16.6Z"/>
</svg>