<?xml version="1.0" encoding="UTF-8"?>
<svg id="Ebene_1" data-name="Ebene 1" xmlns="http://www.w3.org/2000/svg" viewBox="0 0 226.46 87.126">
  <defs>
    <style>
      .cls-1 {
        fill: #fbc400;
      }

      .cls-2 {
        font-family: Verdana-BoldItalic, Verdana;
        font-size: 30px;
        font-style: italic;
        font-weight: 700;
      }

      .cls-2, .cls-3 {
        fill: #fff;
      }
    </style>
  </defs>
  <g>
    <path class="cls-1" d="M184.521,1.139c-6.751,7.812-9.395,11.272-8.24,19.781.649,4.781,2.745,8.3,10.616,16.998.993,1.097,2.045,2.259,3.155,3.498,1.45,1.619,2.747,3.048,3.911,4.331,6.305,6.946,9.182,10.116,11.361,15.939,2.635,7.039,2.134,12.66,1.522,16.451,10.813-7.695,17.874-20.321,17.874-34.604,0-22.691-17.801-41.222-40.2-42.394Z"/>
    <path class="cls-1" d="M196.898,80.888c.154-.493.712-2.17.817-2.76.599-3.345,1.344-7.508-.82-13.288-1.574-4.207-3.596-6.434-9.596-13.045-1.176-1.296-2.485-2.738-3.95-4.373-1.1-1.227-2.142-2.378-3.125-3.465-8.238-9.103-13.21-14.598-13.646-22.798-.482-9.037,2.608-13.907,7.847-19.346-19.699,3.68-34.613,20.953-34.613,41.719,0,23.447,19.008,42.454,42.454,42.454,4.727,0,9.268-.784,13.515-2.21.393-.853.772-1.786,1.117-2.889Z"/>
  </g>
  <text class="cls-2" transform="translate(24.977 53.119)"><tspan x="0" y="0">Tennisclub</tspan></text>
  <g>
    <path class="cls-3" d="M16.691,78.167c1.47-.342,2.854-.737,4.153-1.187l2.49-10.766h-10.063l-.953,4.116h4.351l-.986,4.263c-.215.019-.45.034-.704.044-.255.01-.489.014-.704.014-2.161,0-3.721-.412-4.679-1.236-.959-.824-1.438-2.11-1.438-3.856,0-1.259.196-2.463.586-3.615.391-1.151.933-2.146,1.626-2.985.733-.888,1.616-1.593,2.652-2.114,1.035-.522,2.192-.783,3.471-.783,1.26,0,2.412.217,3.457.651,1.045.435,2.154,1.209,3.325,2.322h.63l1.245-5.112c-1.445-.752-2.839-1.262-4.182-1.531-1.343-.268-2.8-.403-4.372-.403-4.16,0-7.593,1.326-10.298,3.977-2.705,2.652-4.058,6.077-4.058,10.276,0,2.696.877,4.776,2.63,6.24,1.752,1.465,4.177,2.198,7.273,2.198,1.562,0,3.078-.171,4.548-.513Z"/>
    <path class="cls-3" d="M41.19,61.775c-.176-.019-.378-.034-.607-.044-.23-.01-.437-.015-.622-.015-1.005,0-2.002.23-2.992.689s-1.982,1.055-2.977,1.787l.56-2.417h-5.308l-3.816,16.45h5.309l2.555-11.015c.683-.225,1.345-.389,1.989-.491.644-.103,1.311-.154,2.004-.154.419,0,.843.02,1.272.059.429.039.761.097.995.175h.468l1.17-5.024Z"/>
    <path class="cls-3" d="M47.504,55.432l-.923,3.999h4.351l.923-3.999h-4.351ZM55.37,55.432l-.923,3.999h4.351l.923-3.999h-4.351ZM55.248,61.775l-2.696,11.66c-.654.352-1.262.62-1.824.806-.561.185-1.056.278-1.486.278-.869,0-1.46-.144-1.772-.432-.313-.288-.469-.754-.469-1.399,0-.313.037-.694.11-1.143.073-.449.183-.986.329-1.611l1.886-8.159h-5.323l-2.476,10.708c-.087.381-.151.73-.19,1.047-.039.318-.059.662-.059,1.033,0,1.358.418,2.383,1.252,3.076.835.694,1.975,1.04,3.419,1.04.459,0,.922-.041,1.391-.124.469-.083.986-.242,1.552-.476.449-.176.925-.413,1.428-.711.502-.298,1.017-.617,1.544-.959l-.42,1.816h5.308l3.803-16.45h-5.307Z"/>
    <polygon class="cls-3" points="76.727 74.461 68.065 74.461 78.748 64.954 79.496 61.775 64.554 61.775 63.69 65.482 71.966 65.482 61.156 75.003 60.394 78.226 75.848 78.226 76.727 74.461"/>
    <path class="cls-3" d="M92.515,78.335c1.134-.229,2.214-.569,3.24-1.018l.982-4.233h-.587c-.764.478-1.662.913-2.695,1.303-1.033.391-2.127.586-3.282.586-1.655,0-2.884-.322-3.687-.967-.803-.644-1.204-1.538-1.204-2.68v-.337h12.245c.215-.626.389-1.257.521-1.893.132-.635.198-1.286.198-1.951,0-1.936-.623-3.401-1.869-4.394-1.246-.992-3.096-1.489-5.549-1.489-1.613,0-3.094.269-4.442.807-1.349.537-2.473,1.265-3.372,2.184-.938.948-1.657,2.048-2.155,3.299-.499,1.251-.748,2.624-.748,4.119,0,2.19.763,3.905,2.288,5.146,1.524,1.242,3.689,1.862,6.495,1.862,1.28,0,2.487-.115,3.621-.344ZM85.797,67.898c.382-1.049.943-1.868,1.683-2.457.741-.589,1.655-.883,2.743-.883.902,0,1.593.206,2.073.618s.721,1.006.721,1.78c0,.157-.008.309-.023.457-.014.147-.036.309-.065.485h-7.132Z"/>
  </g>
</svg>